<?xml version="1.0" encoding="utf-8"?>
<!-- Generator: Adobe Illustrator 19.2.1, SVG Export Plug-In . SVG Version: 6.00 Build 0)  -->
<svg version="1.1" id="Layer_1" xmlns="http://www.w3.org/2000/svg" xmlns:xlink="http://www.w3.org/1999/xlink" x="0px" y="0px"
	 viewBox="0 0 1625 569" style="enable-background:new 0 0 1625 569;" xml:space="preserve">
<style type="text/css">
	.st0{fill:url(#SVGID_1_);}
</style>
<g>
	
		<linearGradient id="SVGID_1_" gradientUnits="userSpaceOnUse" x1="0.6" y1="275.1499" x2="1625.0443" y2="275.1499" gradientTransform="matrix(1 0 0 1 0 10)">
		<stop  offset="0" style="stop-color:#460058"/>
		<stop  offset="1" style="stop-color:#85298A"/>
	</linearGradient>
	<path class="st0" d="M0.6,488.3c0-162.1,0-324.2,0-486.2c1.3,1.1,0.9,2.7,0.9,4c0,38.3,0,76.6,0,115c0,1,0,1.9,0,2.9
		c0.1,1.8,0.4,2.1,2.2,2.6c0.5,0.1,1.1,0.2,1.6,0.3c18,2.9,36,6,54,8.6c22.5,3.2,45,6,67.6,8.8c11.4,1.4,22.9,2.6,34.3,3.7
		c12.4,1.3,24.8,2.4,37.3,3.5c13.3,1.2,26.6,2.2,39.9,3.2c8,0.6,16,1.1,23.9,1.6c10.9,0.6,21.9,1.3,32.8,1.8
		c12.8,0.6,25.6,1.3,38.3,1.7c11.2,0.4,22.4,0.7,33.6,1c11.2,0.2,22.4,0.5,33.6,0.5c18.2,0,36.3-0.1,54.5-0.3
		c14.7-0.2,29.4-0.5,44.1-1c12.9-0.4,25.7-0.9,38.6-1.5c12.2-0.6,24.4-1.2,36.6-2.1c16.1-1.1,32.2-2.3,48.3-3.8
		c16.3-1.5,32.7-3.1,48.9-5c17-2,34-4.2,50.9-6.5c25.1-3.5,50.2-7.4,75.1-12.1c29.1-5.6,58.1-11.2,87.4-15.4
		c19.3-2.8,38.7-5.4,58-7.9c12.1-1.5,24.2-2.7,36.2-4c10.8-1.1,21.6-2.2,32.5-3.1c11.4-1,22.8-1.8,34.2-2.6
		c12.2-0.8,24.4-1.6,36.6-2.3c8.5-0.5,17.1-0.7,25.6-1.1c5-0.2,10.1-0.4,15.1-0.6c12.5-0.4,24.9-1,37.4-1.1
		c18.1-0.2,36.2-0.2,54.2-0.2c11.2,0,22.4,0.2,33.6,0.4c14.2,0.3,28.3,0.6,42.5,1.1c10,0.3,20,0.6,30,1.1
		c13.3,0.7,26.5,1.4,39.8,2.2c10.5,0.6,21.1,1.3,31.6,2.1c14.8,1.1,29.7,2.3,44.5,3.7c16.8,1.5,33.6,3.2,50.4,5
		c17.2,1.9,34.3,4,51.4,6.2c25.3,3.3,50.5,7,75.7,11.5c2.8,0.5,5.7,1,8.5,1.6c1.8,0.4,2.1,0.8,2.2,2.6c0.1,1.1,0,2.2,0,3.4
		c0,96.2,0,192.5,0,288.7c0,21.4-0.2,42.9-0.3,64.3c0,0.2,0,0.3,0,0.5c-0.1,2.8-0.3,3.1-3,3.7c-0.6,0.1-1.3,0.3-1.9,0.4
		c-12.2,2.3-24.3,4.8-36.5,7c-34.2,6.1-68.3,12.3-102.6,18c-27.6,4.6-55.3,8.6-83,12.7c-14.9,2.2-29.8,4.2-44.7,6.1
		c-15.9,2.1-31.9,4.1-47.9,6c-11.8,1.4-23.5,2.8-35.3,4.1c-13,1.4-25.9,2.8-38.9,4.1c-9,0.9-18,1.8-27,2.6c-9.5,0.9-19,1.7-28.4,2.6
		c-8.6,0.8-17.2,1.5-25.8,2.2c-7.3,0.6-14.5,1.1-21.8,1.7c-7.8,0.6-15.6,1.2-23.4,1.7c-7.7,0.5-15.5,1.1-23.2,1.6
		c-9.1,0.6-18.2,1.2-27.3,1.7c-7.3,0.4-14.7,0.8-22,1.1c-13,0.6-26,1.3-39.1,1.9c-4.8,0.2-9.6,0.4-14.4,0.6
		c-9.7,0.4-19.3,0.9-29,1.2c-9.8,0.4-19.7,0.7-29.5,0.9c-16.3,0.4-32.6,0.8-48.9,1c-24.7,0.2-49.4,0.2-74.2,0.2
		c-16.1,0-32.2-0.3-48.2-0.5c-9.7-0.1-19.4-0.3-29-0.5c-5.7-0.1-11.4-0.3-17-0.4c-10.6-0.3-21.3-0.7-31.9-1
		c-7.1-0.2-14.2-0.4-21.3-0.6c-4.5-0.1-8.9-0.4-13.4-0.6c-8.9-0.4-17.9-0.8-26.8-1.3c-7.3-0.4-14.5-0.7-21.8-1.1
		c-7.1-0.4-14.2-0.8-21.3-1.3c-6.3-0.4-12.6-0.7-18.9-1.1c-10.5-0.7-21.1-1.5-31.6-2.2c-9.7-0.7-19.5-1.3-29.2-2.1
		c-12.5-1-25-2.1-37.5-3.2c-13-1.1-26-2.3-38.9-3.6c-18.9-1.9-37.9-3.9-56.8-6c-22.3-2.5-44.7-5.1-67-7.9c-17.3-2.2-34.6-4.4-51.8-7
		c-31.3-4.6-62.5-9.2-93.7-14.2c-42.9-6.9-85.6-14.6-128.2-23C8.6,489.6,4.6,489,0.6,488.3z"/>
</g>
</svg>
